<svg xmlns="http://www.w3.org/2000/svg" xmlns:xlink="http://www.w3.org/1999/xlink" width="500" zoomAndPan="magnify" viewBox="0 0 375 374.999991" height="500" preserveAspectRatio="xMidYMid meet" version="1.0"><defs><clipPath id="d4db1d7c6f"><path d="M 170 76.394531 L 296 76.394531 L 296 219 L 170 219 Z M 170 76.394531 " clip-rule="nonzero"/></clipPath><clipPath id="d2c1eeda19"><path d="M 156 181 L 299.546875 181 L 299.546875 298.734375 L 156 298.734375 Z M 156 181 " clip-rule="nonzero"/></clipPath><clipPath id="2780c0d6e2"><path d="M 75.375 217 L 192 217 L 192 296 L 75.375 296 Z M 75.375 217 " clip-rule="nonzero"/></clipPath></defs><g clip-path="url(#d4db1d7c6f)"><path fill="#582d2a" d="M 216.089844 82.289062 C 198.039062 73.632812 181.527344 94.207031 177.519531 110.1875 C 171.175781 135.535156 180.570312 145.171875 183.015625 163.0625 C 184.421875 173.523438 158.140625 190.402344 177.625 209.675781 C 192.78125 224.648438 278.148438 221.25 294.128906 184.617188 C 300.980469 168.957031 277.0625 147.507812 273.636719 135.109375 C 268.699219 117.21875 269.550781 99.886719 256.304688 87.066406 C 234.777344 66.199219 216.089844 82.289062 216.089844 82.289062 " fill-opacity="1" fill-rule="evenodd"/></g><g clip-path="url(#d2c1eeda19)"><path fill="#efdbc0" d="M 249.613281 181.300781 C 249.613281 181.300781 269.152344 184.351562 274.035156 188.441406 C 289.058594 200.996094 295.667969 235.769531 299.519531 276.25 C 302.332031 306.085938 216.035156 297.644531 216.035156 297.644531 L 215.929688 290.664062 L 156.46875 287.34375 C 156.46875 287.34375 168.203125 220.558594 171.972656 204.605469 C 176.085938 187.113281 202.472656 183.980469 202.472656 183.980469 L 249.613281 181.300781 " fill-opacity="1" fill-rule="evenodd"/></g><path fill="#582d2a" d="M 183.996094 231.707031 C 183.996094 231.707031 183.941406 235.53125 183.917969 240.625 C 183.917969 243.359375 183.890625 246.441406 183.890625 249.546875 C 183.890625 258.464844 183.996094 267.382812 183.996094 267.382812 C 183.996094 267.730469 184.289062 268.019531 184.632812 268.019531 C 185.003906 268.019531 185.269531 267.730469 185.269531 267.382812 C 185.269531 267.382812 185.375 258.464844 185.402344 249.546875 C 185.402344 246.441406 185.375 243.359375 185.351562 240.625 C 185.324219 235.53125 185.269531 231.707031 185.269531 231.707031 C 185.269531 231.363281 185.003906 231.070312 184.632812 231.070312 C 184.289062 231.070312 183.996094 231.363281 183.996094 231.707031 " fill-opacity="1" fill-rule="evenodd"/><path fill="#582d2a" d="M 260.179688 247.527344 C 260.179688 247.527344 260.496094 249.332031 260.976562 251.75 C 261.214844 253.050781 261.480469 254.507812 261.773438 255.96875 C 262.648438 260.191406 263.628906 264.359375 263.628906 264.359375 C 263.683594 264.703125 264.027344 264.914062 264.375 264.863281 C 264.691406 264.78125 264.929688 264.464844 264.851562 264.117188 C 264.851562 264.117188 264.109375 259.898438 263.257812 255.675781 C 262.964844 254.21875 262.648438 252.757812 262.382812 251.484375 C 261.851562 249.066406 261.453125 247.289062 261.453125 247.289062 C 261.375 246.945312 261.027344 246.707031 260.683594 246.785156 C 260.339844 246.839844 260.101562 247.183594 260.179688 247.527344 " fill-opacity="1" fill-rule="evenodd"/><path fill="#582d2a" d="M 191.773438 295.628906 L 209.292969 290.292969 L 181.792969 282.515625 L 191.773438 295.628906 " fill-opacity="1" fill-rule="evenodd"/><g clip-path="url(#2780c0d6e2)"><path fill="#f7907f" d="M 75.375 218.699219 L 91.355469 292.894531 L 191.773438 295.628906 L 170.671875 217.746094 L 75.375 218.699219 " fill-opacity="1" fill-rule="evenodd"/></g><path fill="#ffffff" d="M 129.445312 244.261719 C 135.65625 244.261719 140.703125 249.308594 140.703125 255.542969 C 140.703125 261.757812 135.65625 266.800781 129.445312 266.800781 C 123.207031 266.800781 118.164062 261.757812 118.164062 255.542969 C 118.164062 249.308594 123.207031 244.261719 129.445312 244.261719 " fill-opacity="1" fill-rule="evenodd"/><path fill="#ffc2af" d="M 215.453125 276.515625 L 215.929688 290.664062 C 215.929688 290.664062 186.863281 293.980469 188.214844 282.515625 C 189.570312 271.019531 215.453125 276.515625 215.453125 276.515625 " fill-opacity="1" fill-rule="evenodd"/><path fill="#f7907f" d="M 191.613281 279.542969 C 192.597656 279.277344 193.550781 279.0625 194.535156 278.878906 C 195.515625 278.691406 196.5 278.585938 197.480469 278.507812 C 199.417969 278.375 201.355469 278.453125 203.347656 278.957031 C 203.585938 279.011719 203.851562 278.878906 203.90625 278.640625 C 203.984375 278.375 203.824219 278.132812 203.585938 278.054688 C 201.488281 277.472656 199.445312 277.257812 197.402344 277.417969 C 196.367188 277.472656 195.355469 277.628906 194.347656 277.84375 C 193.339844 278.054688 192.359375 278.320312 191.347656 278.613281 C 191.109375 278.691406 190.949219 278.957031 191.03125 279.195312 C 191.109375 279.460938 191.375 279.59375 191.613281 279.542969 " fill-opacity="1" fill-rule="evenodd"/><path fill="#f7907f" d="M 190.472656 282.964844 C 191.457031 282.699219 192.410156 282.488281 193.394531 282.300781 C 194.375 282.117188 195.355469 282.011719 196.339844 281.929688 C 198.277344 281.796875 200.214844 281.878906 202.207031 282.382812 C 202.472656 282.433594 202.710938 282.300781 202.761719 282.0625 C 202.84375 281.796875 202.683594 281.558594 202.445312 281.480469 C 200.347656 280.894531 198.304688 280.683594 196.257812 280.84375 C 195.25 280.894531 194.214844 281.054688 193.207031 281.265625 C 192.199219 281.480469 191.191406 281.746094 190.207031 282.035156 C 189.96875 282.117188 189.835938 282.382812 189.890625 282.621094 C 189.96875 282.886719 190.234375 283.019531 190.472656 282.964844 " fill-opacity="1" fill-rule="evenodd"/><path fill="#f7907f" d="M 190.394531 286.070312 C 191.402344 285.910156 192.382812 285.777344 193.367188 285.726562 C 194.375 285.648438 195.355469 285.621094 196.339844 285.648438 C 198.277344 285.699219 200.1875 285.964844 202.125 286.683594 C 202.363281 286.761719 202.628906 286.65625 202.738281 286.417969 C 202.816406 286.175781 202.710938 285.910156 202.472656 285.804688 C 200.425781 285.007812 198.410156 284.609375 196.390625 284.53125 C 195.355469 284.503906 194.320312 284.558594 193.285156 284.664062 C 192.277344 284.769531 191.242188 284.929688 190.234375 285.140625 C 189.96875 285.167969 189.808594 285.433594 189.863281 285.671875 C 189.890625 285.9375 190.15625 286.097656 190.394531 286.070312 " fill-opacity="1" fill-rule="evenodd"/><path fill="#582d2a" d="M 216.671875 297.300781 L 215.371094 270.886719 C 218.027344 270.59375 228.113281 269.507812 239.34375 268.234375 C 256.488281 266.296875 276.292969 264.011719 276.292969 264.011719 C 276.636719 263.984375 276.875 263.667969 276.847656 263.324219 C 276.824219 262.976562 276.503906 262.710938 276.132812 262.765625 C 276.132812 262.765625 256.332031 264.863281 239.15625 266.746094 C 226.070312 268.179688 214.523438 269.507812 214.523438 269.507812 C 214.125 269.558594 213.859375 269.878906 213.859375 270.277344 L 215.371094 297.378906 C 215.398438 297.722656 215.691406 297.988281 216.0625 297.988281 C 216.40625 297.964844 216.671875 297.644531 216.671875 297.300781 " fill-opacity="1" fill-rule="evenodd"/><path fill="#ffc2af" d="M 239.261719 151.570312 L 214.574219 154.039062 C 214.574219 154.039062 214.019531 169.621094 211.816406 175.644531 C 209.796875 181.085938 204.699219 183.527344 204.699219 183.527344 C 204.832031 204.234375 240.484375 203.703125 251.5 181.722656 C 251.5 181.722656 243.03125 178.9375 241.09375 174.105469 C 238.652344 168.132812 239.261719 151.570312 239.261719 151.570312 " fill-opacity="1" fill-rule="evenodd"/><path fill="#f7907f" d="M 211.734375 175.351562 C 227.636719 174.238281 235.121094 168.980469 237.882812 160.410156 L 212.769531 160.167969 C 213.0625 165.398438 213.089844 170.546875 211.734375 175.351562 " fill-opacity="1" fill-rule="evenodd"/><path fill="#ffc2af" d="M 209.027344 96.808594 C 188.457031 99.460938 186.304688 113.425781 188.109375 133.199219 C 190.15625 155.683594 198.25 170.441406 218.714844 169.644531 C 234.882812 169.007812 247.96875 154.964844 247.226562 137.261719 C 246.324219 116.371094 239.738281 92.878906 209.027344 96.808594 " fill-opacity="1" fill-rule="evenodd"/><path fill="#ffc2af" d="M 246.269531 124.414062 C 251.101562 124.148438 255.214844 127.757812 255.429688 132.457031 C 255.695312 137.128906 251.949219 141.136719 247.144531 141.375 C 242.339844 141.613281 238.226562 138.003906 237.988281 133.332031 C 237.75 128.660156 241.464844 124.652344 246.269531 124.414062 " fill-opacity="1" fill-rule="evenodd"/><path fill="#582d2a" d="M 182.617188 126.324219 C 191.507812 104.425781 203.1875 102.886719 203.1875 102.886719 C 210.753906 110.980469 225.671875 120.167969 243.640625 116.609375 C 243.640625 116.609375 242.953125 133.570312 255.640625 128.660156 L 236.765625 90.886719 L 208.390625 93.808594 L 186.570312 103.125 L 182.617188 126.324219 " fill-opacity="1" fill-rule="evenodd"/><path fill="#582d2a" d="M 199.074219 126.40625 C 197.425781 126.5625 196.207031 128.078125 196.367188 129.800781 C 196.523438 131.527344 197.984375 132.800781 199.632812 132.644531 C 201.277344 132.484375 202.496094 130.96875 202.339844 129.246094 C 202.179688 127.519531 200.691406 126.246094 199.074219 126.40625 " fill-opacity="1" fill-rule="evenodd"/><path fill="#582d2a" d="M 222.085938 124.253906 C 223.734375 124.09375 225.195312 125.371094 225.378906 127.09375 C 225.539062 128.820312 224.316406 130.332031 222.671875 130.492188 C 221.027344 130.652344 219.566406 129.378906 219.40625 127.652344 C 219.246094 125.925781 220.441406 124.386719 222.085938 124.253906 " fill-opacity="1" fill-rule="evenodd"/><path fill="#f7907f" d="M 196.179688 134.421875 C 192.808594 134.738281 190.261719 136.835938 190.472656 139.09375 C 190.683594 141.375 193.578125 142.96875 196.949219 142.648438 C 200.320312 142.332031 202.894531 140.234375 202.683594 137.953125 C 202.472656 135.695312 199.550781 134.101562 196.179688 134.421875 " fill-opacity="1" fill-rule="evenodd"/><path fill="#f7907f" d="M 229.707031 131.289062 C 226.335938 131.605469 223.785156 133.703125 223.972656 135.960938 C 224.210938 138.242188 227.105469 139.835938 230.476562 139.519531 C 233.847656 139.199219 236.421875 137.101562 236.210938 134.820312 C 235.996094 132.5625 233.078125 130.96875 229.707031 131.289062 " fill-opacity="1" fill-rule="evenodd"/><path fill="#582d2a" d="M 228.617188 119.15625 C 227.875 118.601562 227.078125 118.230469 226.230469 117.964844 C 225.40625 117.699219 224.53125 117.566406 223.574219 117.539062 C 221.953125 117.511719 220.097656 117.75 218.027344 118.441406 C 217.574219 118.628906 217.042969 118.386719 216.859375 117.910156 C 216.699219 117.460938 216.9375 116.929688 217.414062 116.742188 C 219.699219 115.8125 221.769531 115.363281 223.628906 115.386719 C 224.316406 115.386719 224.980469 115.46875 225.617188 115.628906 C 227.183594 115.972656 228.566406 116.6875 229.757812 117.671875 C 230.15625 118.015625 230.238281 118.574219 229.917969 118.972656 C 229.601562 119.398438 229.015625 119.449219 228.617188 119.15625 " fill-opacity="1" fill-rule="evenodd"/><path fill="#582d2a" d="M 193.234375 120.246094 C 193.976562 119.714844 194.773438 119.289062 195.621094 119.023438 C 196.445312 118.734375 197.320312 118.601562 198.25 118.574219 C 199.894531 118.496094 201.726562 118.707031 203.824219 119.371094 C 204.277344 119.53125 204.808594 119.289062 204.964844 118.8125 C 205.125 118.335938 204.886719 117.832031 204.410156 117.644531 C 202.097656 116.769531 200.027344 116.34375 198.171875 116.398438 C 197.480469 116.421875 196.816406 116.503906 196.179688 116.664062 C 194.613281 117.0625 193.261719 117.777344 192.066406 118.8125 C 191.667969 119.132812 191.613281 119.714844 191.933594 120.113281 C 192.277344 120.511719 192.835938 120.566406 193.234375 120.246094 " fill-opacity="1" fill-rule="evenodd"/><path fill="#f7907f" d="M 222.195312 143.949219 L 206 147.242188 C 206 147.242188 208.921875 154.25 214.65625 153.027344 C 222.167969 151.460938 222.195312 143.949219 222.195312 143.949219 " fill-opacity="1" fill-rule="evenodd"/><path fill="#f7907f" d="M 209.929688 122.449219 C 210.355469 128.316406 209.347656 132.828125 208.976562 135.855469 C 208.761719 137.445312 208.761719 138.695312 209.132812 139.542969 C 209.636719 140.738281 210.886719 141.347656 213.566406 141.03125 C 213.910156 141.003906 214.152344 140.6875 214.097656 140.339844 C 214.070312 139.996094 213.753906 139.757812 213.40625 139.78125 C 212.425781 139.890625 211.683594 139.890625 211.125 139.730469 C 210.699219 139.597656 210.433594 139.386719 210.273438 139.039062 C 209.984375 138.351562 210.0625 137.339844 210.222656 136.015625 C 210.621094 132.90625 211.628906 128.34375 211.203125 122.371094 C 211.179688 122 210.859375 121.757812 210.515625 121.785156 C 210.167969 121.785156 209.902344 122.105469 209.929688 122.449219 " fill-opacity="1" fill-rule="evenodd"/></svg>